<svg xmlns="http://www.w3.org/2000/svg" width="153.933" height="107.753" viewBox="0 0 153.933 107.753">
  <g id="Group_6" data-name="Group 6" transform="translate(-955 -299)">
    <path id="cloud-solid" d="M129.3,78.805a23.117,23.117,0,0,0-21.551-31.412,22.972,22.972,0,0,0-12.82,3.9A38.486,38.486,0,0,0,23.09,70.483c0,.649.024,1.3.048,1.948a34.644,34.644,0,0,0,11.5,67.322h88.512A30.785,30.785,0,0,0,129.3,78.805Z" transform="translate(955 267)" fill="#00b1ff"/>
    <path id="question-solid" d="M45.288,0C36.379,0,30.609,3.65,26.079,10.159a2.681,2.681,0,0,0,.578,3.669l4.815,3.651a2.679,2.679,0,0,0,3.711-.463c2.8-3.5,4.87-5.519,9.237-5.519,3.434,0,7.681,2.21,7.681,5.539,0,2.517-2.078,3.81-5.468,5.71-3.954,2.217-9.185,4.975-9.185,11.876v1.092a2.679,2.679,0,0,0,2.679,2.679h8.089a2.679,2.679,0,0,0,2.679-2.679v-.644c0-4.784,13.981-4.983,13.981-17.928C64.874,7.395,54.762,0,45.288,0ZM44.17,41.682A7.731,7.731,0,1,0,51.9,49.413,7.74,7.74,0,0,0,44.17,41.682Z" transform="translate(986.403 334)" fill="#fff"/>
  </g>
</svg>
